<?xml version="1.0" encoding="utf-8" standalone="no"?>
<!DOCTYPE svg PUBLIC "-//W3C//DTD SVG 1.1//EN"
  "http://www.w3.org/Graphics/SVG/1.1/DTD/svg11.dtd">
<!-- Created with matplotlib (https://matplotlib.org/) -->
<svg height="288pt" version="1.1" viewBox="0 0 432 288" width="432pt" xmlns="http://www.w3.org/2000/svg" xmlns:xlink="http://www.w3.org/1999/xlink">
 <metadata>
  <rdf:RDF xmlns:cc="http://creativecommons.org/ns#" xmlns:dc="http://purl.org/dc/elements/1.1/" xmlns:rdf="http://www.w3.org/1999/02/22-rdf-syntax-ns#">
   <cc:Work>
    <dc:type rdf:resource="http://purl.org/dc/dcmitype/StillImage"/>
    <dc:date>2022-06-13T23:21:56.781801</dc:date>
    <dc:format>image/svg+xml</dc:format>
    <dc:creator>
     <cc:Agent>
      <dc:title>Matplotlib v3.3.4, https://matplotlib.org/</dc:title>
     </cc:Agent>
    </dc:creator>
   </cc:Work>
  </rdf:RDF>
 </metadata>
 <defs>
  <style type="text/css">*{stroke-linecap:butt;stroke-linejoin:round;}</style>
 </defs>
 <g id="figure_1">
  <g id="patch_1">
   <path d="M 0 288 
L 432 288 
L 432 0 
L 0 0 
z
" style="fill:none;"/>
  </g>
  <g id="axes_1">
   <g id="patch_2">
    <path d="M 54 252 
L 388.8 252 
L 388.8 34.56 
L 54 34.56 
z
" style="fill:#ffffff;"/>
   </g>
   <g id="matplotlib.axis_1">
    <g id="xtick_1">
     <g id="line2d_1">
      <defs>
       <path d="M 0 0 
L 0 3.5 
" id="m4401e4d6b0" style="stroke:#000000;stroke-width:0.8;"/>
      </defs>
      <g>
       <use style="stroke:#000000;stroke-width:0.8;" x="69.218182" xlink:href="#m4401e4d6b0" y="252"/>
      </g>
     </g>
     <g id="text_1">
      <!-- 0.0 -->
      <g transform="translate(61.266619 266.598437)scale(0.1 -0.1)">
       <defs>
        <path d="M 31.78125 66.40625 
Q 24.171875 66.40625 20.328125 58.90625 
Q 16.5 51.421875 16.5 36.375 
Q 16.5 21.390625 20.328125 13.890625 
Q 24.171875 6.390625 31.78125 6.390625 
Q 39.453125 6.390625 43.28125 13.890625 
Q 47.125 21.390625 47.125 36.375 
Q 47.125 51.421875 43.28125 58.90625 
Q 39.453125 66.40625 31.78125 66.40625 
z
M 31.78125 74.21875 
Q 44.046875 74.21875 50.515625 64.515625 
Q 56.984375 54.828125 56.984375 36.375 
Q 56.984375 17.96875 50.515625 8.265625 
Q 44.046875 -1.421875 31.78125 -1.421875 
Q 19.53125 -1.421875 13.0625 8.265625 
Q 6.59375 17.96875 6.59375 36.375 
Q 6.59375 54.828125 13.0625 64.515625 
Q 19.53125 74.21875 31.78125 74.21875 
z
" id="DejaVuSans-48"/>
        <path d="M 10.6875 12.40625 
L 21 12.40625 
L 21 0 
L 10.6875 0 
z
" id="DejaVuSans-46"/>
       </defs>
       <use xlink:href="#DejaVuSans-48"/>
       <use x="63.623047" xlink:href="#DejaVuSans-46"/>
       <use x="95.410156" xlink:href="#DejaVuSans-48"/>
      </g>
     </g>
    </g>
    <g id="xtick_2">
     <g id="line2d_2">
      <g>
       <use style="stroke:#000000;stroke-width:0.8;" x="130.090909" xlink:href="#m4401e4d6b0" y="252"/>
      </g>
     </g>
     <g id="text_2">
      <!-- 0.2 -->
      <g transform="translate(122.139347 266.598437)scale(0.1 -0.1)">
       <defs>
        <path d="M 19.1875 8.296875 
L 53.609375 8.296875 
L 53.609375 0 
L 7.328125 0 
L 7.328125 8.296875 
Q 12.9375 14.109375 22.625 23.890625 
Q 32.328125 33.6875 34.8125 36.53125 
Q 39.546875 41.84375 41.421875 45.53125 
Q 43.3125 49.21875 43.3125 52.78125 
Q 43.3125 58.59375 39.234375 62.25 
Q 35.15625 65.921875 28.609375 65.921875 
Q 23.96875 65.921875 18.8125 64.3125 
Q 13.671875 62.703125 7.8125 59.421875 
L 7.8125 69.390625 
Q 13.765625 71.78125 18.9375 73 
Q 24.125 74.21875 28.421875 74.21875 
Q 39.75 74.21875 46.484375 68.546875 
Q 53.21875 62.890625 53.21875 53.421875 
Q 53.21875 48.921875 51.53125 44.890625 
Q 49.859375 40.875 45.40625 35.40625 
Q 44.1875 33.984375 37.640625 27.21875 
Q 31.109375 20.453125 19.1875 8.296875 
z
" id="DejaVuSans-50"/>
       </defs>
       <use xlink:href="#DejaVuSans-48"/>
       <use x="63.623047" xlink:href="#DejaVuSans-46"/>
       <use x="95.410156" xlink:href="#DejaVuSans-50"/>
      </g>
     </g>
    </g>
    <g id="xtick_3">
     <g id="line2d_3">
      <g>
       <use style="stroke:#000000;stroke-width:0.8;" x="190.963636" xlink:href="#m4401e4d6b0" y="252"/>
      </g>
     </g>
     <g id="text_3">
      <!-- 0.4 -->
      <g transform="translate(183.012074 266.598437)scale(0.1 -0.1)">
       <defs>
        <path d="M 37.796875 64.3125 
L 12.890625 25.390625 
L 37.796875 25.390625 
z
M 35.203125 72.90625 
L 47.609375 72.90625 
L 47.609375 25.390625 
L 58.015625 25.390625 
L 58.015625 17.1875 
L 47.609375 17.1875 
L 47.609375 0 
L 37.796875 0 
L 37.796875 17.1875 
L 4.890625 17.1875 
L 4.890625 26.703125 
z
" id="DejaVuSans-52"/>
       </defs>
       <use xlink:href="#DejaVuSans-48"/>
       <use x="63.623047" xlink:href="#DejaVuSans-46"/>
       <use x="95.410156" xlink:href="#DejaVuSans-52"/>
      </g>
     </g>
    </g>
    <g id="xtick_4">
     <g id="line2d_4">
      <g>
       <use style="stroke:#000000;stroke-width:0.8;" x="251.836364" xlink:href="#m4401e4d6b0" y="252"/>
      </g>
     </g>
     <g id="text_4">
      <!-- 0.6 -->
      <g transform="translate(243.884801 266.598437)scale(0.1 -0.1)">
       <defs>
        <path d="M 33.015625 40.375 
Q 26.375 40.375 22.484375 35.828125 
Q 18.609375 31.296875 18.609375 23.390625 
Q 18.609375 15.53125 22.484375 10.953125 
Q 26.375 6.390625 33.015625 6.390625 
Q 39.65625 6.390625 43.53125 10.953125 
Q 47.40625 15.53125 47.40625 23.390625 
Q 47.40625 31.296875 43.53125 35.828125 
Q 39.65625 40.375 33.015625 40.375 
z
M 52.59375 71.296875 
L 52.59375 62.3125 
Q 48.875 64.0625 45.09375 64.984375 
Q 41.3125 65.921875 37.59375 65.921875 
Q 27.828125 65.921875 22.671875 59.328125 
Q 17.53125 52.734375 16.796875 39.40625 
Q 19.671875 43.65625 24.015625 45.921875 
Q 28.375 48.1875 33.59375 48.1875 
Q 44.578125 48.1875 50.953125 41.515625 
Q 57.328125 34.859375 57.328125 23.390625 
Q 57.328125 12.15625 50.6875 5.359375 
Q 44.046875 -1.421875 33.015625 -1.421875 
Q 20.359375 -1.421875 13.671875 8.265625 
Q 6.984375 17.96875 6.984375 36.375 
Q 6.984375 53.65625 15.1875 63.9375 
Q 23.390625 74.21875 37.203125 74.21875 
Q 40.921875 74.21875 44.703125 73.484375 
Q 48.484375 72.75 52.59375 71.296875 
z
" id="DejaVuSans-54"/>
       </defs>
       <use xlink:href="#DejaVuSans-48"/>
       <use x="63.623047" xlink:href="#DejaVuSans-46"/>
       <use x="95.410156" xlink:href="#DejaVuSans-54"/>
      </g>
     </g>
    </g>
    <g id="xtick_5">
     <g id="line2d_5">
      <g>
       <use style="stroke:#000000;stroke-width:0.8;" x="312.709091" xlink:href="#m4401e4d6b0" y="252"/>
      </g>
     </g>
     <g id="text_5">
      <!-- 0.8 -->
      <g transform="translate(304.757528 266.598437)scale(0.1 -0.1)">
       <defs>
        <path d="M 31.78125 34.625 
Q 24.75 34.625 20.71875 30.859375 
Q 16.703125 27.09375 16.703125 20.515625 
Q 16.703125 13.921875 20.71875 10.15625 
Q 24.75 6.390625 31.78125 6.390625 
Q 38.8125 6.390625 42.859375 10.171875 
Q 46.921875 13.96875 46.921875 20.515625 
Q 46.921875 27.09375 42.890625 30.859375 
Q 38.875 34.625 31.78125 34.625 
z
M 21.921875 38.8125 
Q 15.578125 40.375 12.03125 44.71875 
Q 8.5 49.078125 8.5 55.328125 
Q 8.5 64.0625 14.71875 69.140625 
Q 20.953125 74.21875 31.78125 74.21875 
Q 42.671875 74.21875 48.875 69.140625 
Q 55.078125 64.0625 55.078125 55.328125 
Q 55.078125 49.078125 51.53125 44.71875 
Q 48 40.375 41.703125 38.8125 
Q 48.828125 37.15625 52.796875 32.3125 
Q 56.78125 27.484375 56.78125 20.515625 
Q 56.78125 9.90625 50.3125 4.234375 
Q 43.84375 -1.421875 31.78125 -1.421875 
Q 19.734375 -1.421875 13.25 4.234375 
Q 6.78125 9.90625 6.78125 20.515625 
Q 6.78125 27.484375 10.78125 32.3125 
Q 14.796875 37.15625 21.921875 38.8125 
z
M 18.3125 54.390625 
Q 18.3125 48.734375 21.84375 45.5625 
Q 25.390625 42.390625 31.78125 42.390625 
Q 38.140625 42.390625 41.71875 45.5625 
Q 45.3125 48.734375 45.3125 54.390625 
Q 45.3125 60.0625 41.71875 63.234375 
Q 38.140625 66.40625 31.78125 66.40625 
Q 25.390625 66.40625 21.84375 63.234375 
Q 18.3125 60.0625 18.3125 54.390625 
z
" id="DejaVuSans-56"/>
       </defs>
       <use xlink:href="#DejaVuSans-48"/>
       <use x="63.623047" xlink:href="#DejaVuSans-46"/>
       <use x="95.410156" xlink:href="#DejaVuSans-56"/>
      </g>
     </g>
    </g>
    <g id="xtick_6">
     <g id="line2d_6">
      <g>
       <use style="stroke:#000000;stroke-width:0.8;" x="373.581818" xlink:href="#m4401e4d6b0" y="252"/>
      </g>
     </g>
     <g id="text_6">
      <!-- 1.0 -->
      <g transform="translate(365.630256 266.598437)scale(0.1 -0.1)">
       <defs>
        <path d="M 12.40625 8.296875 
L 28.515625 8.296875 
L 28.515625 63.921875 
L 10.984375 60.40625 
L 10.984375 69.390625 
L 28.421875 72.90625 
L 38.28125 72.90625 
L 38.28125 8.296875 
L 54.390625 8.296875 
L 54.390625 0 
L 12.40625 0 
z
" id="DejaVuSans-49"/>
       </defs>
       <use xlink:href="#DejaVuSans-49"/>
       <use x="63.623047" xlink:href="#DejaVuSans-46"/>
       <use x="95.410156" xlink:href="#DejaVuSans-48"/>
      </g>
     </g>
    </g>
    <g id="text_7">
     <!-- Концентрация новостных медиа -->
     <g transform="translate(134.99375 280.276563)scale(0.1 -0.1)">
      <defs>
       <path d="M 9.8125 72.90625 
L 19.671875 72.90625 
L 19.671875 36.859375 
L 54.9375 72.90625 
L 67.578125 72.90625 
L 39.40625 44.09375 
L 69.046875 0 
L 58.296875 0 
L 33.015625 37.546875 
L 19.671875 23.921875 
L 19.671875 0 
L 9.8125 0 
z
" id="DejaVuSans-1050"/>
       <path d="M 30.609375 48.390625 
Q 23.390625 48.390625 19.1875 42.75 
Q 14.984375 37.109375 14.984375 27.296875 
Q 14.984375 17.484375 19.15625 11.84375 
Q 23.34375 6.203125 30.609375 6.203125 
Q 37.796875 6.203125 41.984375 11.859375 
Q 46.1875 17.53125 46.1875 27.296875 
Q 46.1875 37.015625 41.984375 42.703125 
Q 37.796875 48.390625 30.609375 48.390625 
z
M 30.609375 56 
Q 42.328125 56 49.015625 48.375 
Q 55.71875 40.765625 55.71875 27.296875 
Q 55.71875 13.875 49.015625 6.21875 
Q 42.328125 -1.421875 30.609375 -1.421875 
Q 18.84375 -1.421875 12.171875 6.21875 
Q 5.515625 13.875 5.515625 27.296875 
Q 5.515625 40.765625 12.171875 48.375 
Q 18.84375 56 30.609375 56 
z
" id="DejaVuSans-1086"/>
       <path d="M 9.078125 54.6875 
L 18.109375 54.6875 
L 18.109375 32.375 
L 47.265625 32.375 
L 47.265625 54.6875 
L 56.296875 54.6875 
L 56.296875 0 
L 47.265625 0 
L 47.265625 25.203125 
L 18.109375 25.203125 
L 18.109375 0 
L 9.078125 0 
z
" id="DejaVuSans-1085"/>
       <path d="M 56.296875 0 
L 9.078125 0 
L 9.078125 54.6875 
L 18.109375 54.6875 
L 18.109375 7.171875 
L 47.265625 7.171875 
L 47.265625 54.6875 
L 56.296875 54.6875 
L 56.296875 7.171875 
L 63.484375 7.171875 
L 63.484375 -13.8125 
L 56.296875 -13.8125 
z
" id="DejaVuSans-1094"/>
       <path d="M 56.203125 29.59375 
L 56.203125 25.203125 
L 14.890625 25.203125 
Q 15.484375 15.921875 20.484375 11.0625 
Q 25.484375 6.203125 34.421875 6.203125 
Q 39.59375 6.203125 44.453125 7.46875 
Q 49.3125 8.734375 54.109375 11.28125 
L 54.109375 2.78125 
Q 49.265625 0.734375 44.1875 -0.34375 
Q 39.109375 -1.421875 33.890625 -1.421875 
Q 20.796875 -1.421875 13.15625 6.1875 
Q 5.515625 13.8125 5.515625 26.8125 
Q 5.515625 40.234375 12.765625 48.109375 
Q 20.015625 56 32.328125 56 
Q 43.359375 56 49.78125 48.890625 
Q 56.203125 41.796875 56.203125 29.59375 
z
M 47.21875 32.234375 
Q 47.125 39.59375 43.09375 43.984375 
Q 39.0625 48.390625 32.421875 48.390625 
Q 24.90625 48.390625 20.390625 44.140625 
Q 15.875 39.890625 15.1875 32.171875 
z
" id="DejaVuSans-1077"/>
       <path d="M 2.9375 54.6875 
L 55.328125 54.6875 
L 55.328125 47.515625 
L 33.546875 47.515625 
L 33.546875 0 
L 24.703125 0 
L 24.703125 47.515625 
L 2.9375 47.515625 
z
" id="DejaVuSans-1090"/>
       <path d="M 18.109375 8.203125 
L 18.109375 -20.796875 
L 9.078125 -20.796875 
L 9.078125 54.6875 
L 18.109375 54.6875 
L 18.109375 46.390625 
Q 20.953125 51.265625 25.265625 53.625 
Q 29.59375 56 35.59375 56 
Q 45.5625 56 51.78125 48.09375 
Q 58.015625 40.1875 58.015625 27.296875 
Q 58.015625 14.40625 51.78125 6.484375 
Q 45.5625 -1.421875 35.59375 -1.421875 
Q 29.59375 -1.421875 25.265625 0.953125 
Q 20.953125 3.328125 18.109375 8.203125 
z
M 48.6875 27.296875 
Q 48.6875 37.203125 44.609375 42.84375 
Q 40.53125 48.484375 33.40625 48.484375 
Q 26.265625 48.484375 22.1875 42.84375 
Q 18.109375 37.203125 18.109375 27.296875 
Q 18.109375 17.390625 22.1875 11.75 
Q 26.265625 6.109375 33.40625 6.109375 
Q 40.53125 6.109375 44.609375 11.75 
Q 48.6875 17.390625 48.6875 27.296875 
z
" id="DejaVuSans-1088"/>
       <path d="M 34.28125 27.484375 
Q 23.390625 27.484375 19.1875 25 
Q 14.984375 22.515625 14.984375 16.5 
Q 14.984375 11.71875 18.140625 8.90625 
Q 21.296875 6.109375 26.703125 6.109375 
Q 34.1875 6.109375 38.703125 11.40625 
Q 43.21875 16.703125 43.21875 25.484375 
L 43.21875 27.484375 
z
M 52.203125 31.203125 
L 52.203125 0 
L 43.21875 0 
L 43.21875 8.296875 
Q 40.140625 3.328125 35.546875 0.953125 
Q 30.953125 -1.421875 24.3125 -1.421875 
Q 15.921875 -1.421875 10.953125 3.296875 
Q 6 8.015625 6 15.921875 
Q 6 25.140625 12.171875 29.828125 
Q 18.359375 34.515625 30.609375 34.515625 
L 43.21875 34.515625 
L 43.21875 35.40625 
Q 43.21875 41.609375 39.140625 45 
Q 35.0625 48.390625 27.6875 48.390625 
Q 23 48.390625 18.546875 47.265625 
Q 14.109375 46.140625 10.015625 43.890625 
L 10.015625 52.203125 
Q 14.9375 54.109375 19.578125 55.046875 
Q 24.21875 56 28.609375 56 
Q 40.484375 56 46.34375 49.84375 
Q 52.203125 43.703125 52.203125 31.203125 
z
" id="DejaVuSans-1072"/>
       <path d="M 55.90625 54.6875 
L 55.90625 0 
L 46.96875 0 
L 46.96875 43.890625 
L 20.609375 0 
L 9.078125 0 
L 9.078125 54.6875 
L 18.015625 54.6875 
L 18.015625 10.890625 
L 44.34375 54.6875 
z
" id="DejaVuSans-1080"/>
       <path d="M 18.453125 38.921875 
Q 18.453125 34.859375 21.578125 32.5625 
Q 24.703125 30.28125 30.515625 30.28125 
L 42.625 30.28125 
L 42.625 47.515625 
L 30.515625 47.515625 
Q 24.703125 47.515625 21.578125 45.265625 
Q 18.453125 43.015625 18.453125 38.921875 
z
M 5.671875 0 
L 22.359375 23.96875 
Q 16.703125 25.25 12.9375 28.59375 
Q 9.1875 31.9375 9.1875 38.921875 
Q 9.1875 46.828125 14.421875 50.75 
Q 19.671875 54.6875 30.28125 54.6875 
L 51.65625 54.6875 
L 51.65625 0 
L 42.625 0 
L 42.625 23.09375 
L 31.453125 23.09375 
L 15.328125 0 
z
" id="DejaVuSans-1103"/>
       <path id="DejaVuSans-32"/>
       <path d="M 18.0625 25.203125 
L 18.0625 7.171875 
L 30.859375 7.171875 
Q 37.015625 7.171875 40.234375 9.484375 
Q 43.453125 11.8125 43.453125 16.21875 
Q 43.453125 20.609375 40.234375 22.90625 
Q 37.015625 25.203125 30.859375 25.203125 
z
M 18.0625 47.515625 
L 18.0625 32.375 
L 29.890625 32.375 
Q 34.96875 32.375 38.1875 34.390625 
Q 41.40625 36.421875 41.40625 40.046875 
Q 41.40625 43.65625 38.1875 45.578125 
Q 34.96875 47.515625 29.890625 47.515625 
z
M 9.078125 54.6875 
L 30.46875 54.6875 
Q 40.09375 54.6875 45.265625 51.171875 
Q 50.4375 47.65625 50.4375 41.15625 
Q 50.4375 36.140625 47.796875 33.171875 
Q 45.171875 30.21875 39.984375 29.5 
Q 46.1875 28.328125 49.609375 24.609375 
Q 53.03125 20.90625 53.03125 15.328125 
Q 53.03125 8.015625 47.390625 4 
Q 41.75 0 31.296875 0 
L 9.078125 0 
z
" id="DejaVuSans-1074"/>
       <path d="M 48.78125 52.59375 
L 48.78125 44.1875 
Q 44.96875 46.296875 41.140625 47.34375 
Q 37.3125 48.390625 33.40625 48.390625 
Q 24.65625 48.390625 19.8125 42.84375 
Q 14.984375 37.3125 14.984375 27.296875 
Q 14.984375 17.28125 19.8125 11.734375 
Q 24.65625 6.203125 33.40625 6.203125 
Q 37.3125 6.203125 41.140625 7.25 
Q 44.96875 8.296875 48.78125 10.40625 
L 48.78125 2.09375 
Q 45.015625 0.34375 40.984375 -0.53125 
Q 36.96875 -1.421875 32.421875 -1.421875 
Q 20.0625 -1.421875 12.78125 6.34375 
Q 5.515625 14.109375 5.515625 27.296875 
Q 5.515625 40.671875 12.859375 48.328125 
Q 20.21875 56 33.015625 56 
Q 37.15625 56 41.109375 55.140625 
Q 45.0625 54.296875 48.78125 52.59375 
z
" id="DejaVuSans-1089"/>
       <path d="M 61.078125 54.6875 
L 70.0625 54.6875 
L 70.0625 0 
L 61.078125 0 
z
M 65.578125 56 
z
M 43.453125 16.21875 
Q 43.453125 20.609375 40.25 22.90625 
Q 37.0625 25.203125 30.90625 25.203125 
L 18.109375 25.203125 
L 18.109375 7.171875 
L 30.90625 7.171875 
Q 37.0625 7.171875 40.25 9.484375 
Q 43.453125 11.8125 43.453125 16.21875 
z
M 9.078125 54.6875 
L 18.109375 54.6875 
L 18.109375 32.375 
L 31.296875 32.375 
Q 41.75 32.375 47.390625 28.390625 
Q 53.03125 24.421875 53.03125 16.21875 
Q 53.03125 8.015625 47.390625 4 
Q 41.75 0 31.296875 0 
L 9.078125 0 
z
" id="DejaVuSans-1099"/>
       <path d="M 54.890625 54.6875 
L 35.109375 28.078125 
L 55.90625 0 
L 45.3125 0 
L 29.390625 21.484375 
L 13.484375 0 
L 2.875 0 
L 24.125 28.609375 
L 4.6875 54.6875 
L 15.28125 54.6875 
L 29.78125 35.203125 
L 44.28125 54.6875 
z
" id="DejaVuSans-1093"/>
       <path d="M 9.078125 54.6875 
L 22.21875 54.6875 
L 37.75 18.0625 
L 53.328125 54.6875 
L 66.359375 54.6875 
L 66.359375 0 
L 57.328125 0 
L 57.328125 46.09375 
L 42.234375 10.5 
L 33.25 10.5 
L 18.109375 46.09375 
L 18.109375 0 
L 9.078125 0 
z
" id="DejaVuSans-1084"/>
       <path d="M 21.625 7.171875 
L 47.703125 7.171875 
L 47.703125 47.515625 
L 28.8125 47.515625 
L 28.8125 40.671875 
Q 28.8125 20.5625 23.046875 9.8125 
z
M 8.59375 7.171875 
Q 13.03125 9.125 14.984375 13.28125 
Q 19.78125 23.578125 19.78125 44.34375 
L 19.78125 54.6875 
L 56.734375 54.6875 
L 56.734375 7.171875 
L 63.921875 7.171875 
L 63.921875 -13.8125 
L 56.734375 -13.8125 
L 56.734375 0 
L 12.40625 0 
L 12.40625 -13.8125 
L 5.21875 -13.8125 
L 5.21875 7.171875 
z
" id="DejaVuSans-1076"/>
      </defs>
      <use xlink:href="#DejaVuSans-1050"/>
      <use x="70.996094" xlink:href="#DejaVuSans-1086"/>
      <use x="132.177734" xlink:href="#DejaVuSans-1085"/>
      <use x="197.558594" xlink:href="#DejaVuSans-1094"/>
      <use x="265.625" xlink:href="#DejaVuSans-1077"/>
      <use x="327.148438" xlink:href="#DejaVuSans-1085"/>
      <use x="392.529297" xlink:href="#DejaVuSans-1090"/>
      <use x="450.78125" xlink:href="#DejaVuSans-1088"/>
      <use x="514.257812" xlink:href="#DejaVuSans-1072"/>
      <use x="575.537109" xlink:href="#DejaVuSans-1094"/>
      <use x="643.603516" xlink:href="#DejaVuSans-1080"/>
      <use x="708.59375" xlink:href="#DejaVuSans-1103"/>
      <use x="768.75" xlink:href="#DejaVuSans-32"/>
      <use x="800.537109" xlink:href="#DejaVuSans-1085"/>
      <use x="865.917969" xlink:href="#DejaVuSans-1086"/>
      <use x="927.099609" xlink:href="#DejaVuSans-1074"/>
      <use x="986.035156" xlink:href="#DejaVuSans-1086"/>
      <use x="1047.216797" xlink:href="#DejaVuSans-1089"/>
      <use x="1102.197266" xlink:href="#DejaVuSans-1090"/>
      <use x="1160.449219" xlink:href="#DejaVuSans-1085"/>
      <use x="1225.830078" xlink:href="#DejaVuSans-1099"/>
      <use x="1304.785156" xlink:href="#DejaVuSans-1093"/>
      <use x="1363.964844" xlink:href="#DejaVuSans-32"/>
      <use x="1395.751953" xlink:href="#DejaVuSans-1084"/>
      <use x="1471.191406" xlink:href="#DejaVuSans-1077"/>
      <use x="1532.714844" xlink:href="#DejaVuSans-1076"/>
      <use x="1601.855469" xlink:href="#DejaVuSans-1080"/>
      <use x="1666.845703" xlink:href="#DejaVuSans-1072"/>
     </g>
    </g>
   </g>
   <g id="matplotlib.axis_2">
    <g id="ytick_1">
     <g id="line2d_7">
      <defs>
       <path d="M 0 0 
L -3.5 0 
" id="mb4379b31d9" style="stroke:#000000;stroke-width:0.8;"/>
      </defs>
      <g>
       <use style="stroke:#000000;stroke-width:0.8;" x="54" xlink:href="#mb4379b31d9" y="216.023853"/>
      </g>
     </g>
     <g id="text_8">
      <!-- 0.2 -->
      <g transform="translate(31.096875 219.823072)scale(0.1 -0.1)">
       <use xlink:href="#DejaVuSans-48"/>
       <use x="63.623047" xlink:href="#DejaVuSans-46"/>
       <use x="95.410156" xlink:href="#DejaVuSans-50"/>
      </g>
     </g>
    </g>
    <g id="ytick_2">
     <g id="line2d_8">
      <g>
       <use style="stroke:#000000;stroke-width:0.8;" x="54" xlink:href="#mb4379b31d9" y="174.452094"/>
      </g>
     </g>
     <g id="text_9">
      <!-- 0.4 -->
      <g transform="translate(31.096875 178.251313)scale(0.1 -0.1)">
       <use xlink:href="#DejaVuSans-48"/>
       <use x="63.623047" xlink:href="#DejaVuSans-46"/>
       <use x="95.410156" xlink:href="#DejaVuSans-52"/>
      </g>
     </g>
    </g>
    <g id="ytick_3">
     <g id="line2d_9">
      <g>
       <use style="stroke:#000000;stroke-width:0.8;" x="54" xlink:href="#mb4379b31d9" y="132.880335"/>
      </g>
     </g>
     <g id="text_10">
      <!-- 0.6 -->
      <g transform="translate(31.096875 136.679554)scale(0.1 -0.1)">
       <use xlink:href="#DejaVuSans-48"/>
       <use x="63.623047" xlink:href="#DejaVuSans-46"/>
       <use x="95.410156" xlink:href="#DejaVuSans-54"/>
      </g>
     </g>
    </g>
    <g id="ytick_4">
     <g id="line2d_10">
      <g>
       <use style="stroke:#000000;stroke-width:0.8;" x="54" xlink:href="#mb4379b31d9" y="91.308576"/>
      </g>
     </g>
     <g id="text_11">
      <!-- 0.8 -->
      <g transform="translate(31.096875 95.107795)scale(0.1 -0.1)">
       <use xlink:href="#DejaVuSans-48"/>
       <use x="63.623047" xlink:href="#DejaVuSans-46"/>
       <use x="95.410156" xlink:href="#DejaVuSans-56"/>
      </g>
     </g>
    </g>
    <g id="ytick_5">
     <g id="line2d_11">
      <g>
       <use style="stroke:#000000;stroke-width:0.8;" x="54" xlink:href="#mb4379b31d9" y="49.736817"/>
      </g>
     </g>
     <g id="text_12">
      <!-- 1.0 -->
      <g transform="translate(31.096875 53.536036)scale(0.1 -0.1)">
       <use xlink:href="#DejaVuSans-49"/>
       <use x="63.623047" xlink:href="#DejaVuSans-46"/>
       <use x="95.410156" xlink:href="#DejaVuSans-48"/>
      </g>
     </g>
    </g>
    <g id="text_13">
     <!-- Политическая поляризация -->
     <g transform="translate(25.017187 216.505781)rotate(-90)scale(0.1 -0.1)">
      <defs>
       <path d="M 65.375 72.90625 
L 65.375 0 
L 55.515625 0 
L 55.515625 64.59375 
L 19.671875 64.59375 
L 19.671875 0 
L 9.8125 0 
L 9.8125 72.90625 
z
" id="DejaVuSans-1055"/>
       <path d="M 3.71875 0 
L 3.71875 7.46875 
Q 12.59375 8.84375 15.328125 14.984375 
Q 18.65625 23.640625 18.65625 45.75 
L 18.65625 54.6875 
L 55.609375 54.6875 
L 55.609375 0 
L 46.625 0 
L 46.625 47.515625 
L 27.640625 47.515625 
L 27.640625 42.09375 
Q 27.640625 21 23.34375 11.53125 
Q 18.75 1.421875 3.71875 0 
z
" id="DejaVuSans-1083"/>
       <path d="M 41.015625 0 
L 41.015625 23 
L 24.265625 23 
Q 16.796875 23 11.8125 27.640625 
Q 7.328125 31.84375 7.328125 40.828125 
L 7.328125 54.6875 
L 16.3125 54.6875 
L 16.3125 41.65625 
Q 16.3125 35.9375 18.84375 33.0625 
Q 21.4375 30.171875 26.515625 30.171875 
L 41.015625 30.171875 
L 41.015625 54.6875 
L 50 54.6875 
L 50 0 
z
" id="DejaVuSans-1095"/>
       <path d="M 9.078125 54.6875 
L 18.015625 54.6875 
L 18.015625 29 
L 43.359375 54.6875 
L 54.390625 54.6875 
L 33.5 33.546875 
L 57.078125 0 
L 47.015625 0 
L 27.640625 27.59375 
L 18.015625 17.828125 
L 18.015625 0 
L 9.078125 0 
z
" id="DejaVuSans-1082"/>
       <path d="M 56.296875 54.6875 
L 56.296875 0 
L 47.265625 0 
L 47.265625 47.515625 
L 18.109375 47.515625 
L 18.109375 0 
L 9.078125 0 
L 9.078125 54.6875 
z
" id="DejaVuSans-1087"/>
       <path d="M 34.46875 29.5 
Q 40.53125 28.328125 43.890625 24.75 
Q 47.265625 21.1875 47.265625 15.921875 
Q 47.265625 7.46875 40.96875 3.015625 
Q 34.671875 -1.421875 23.046875 -1.421875 
Q 19.140625 -1.421875 15.015625 -0.734375 
Q 10.890625 -0.046875 6.5 1.3125 
L 6.5 9.671875 
Q 9.96875 7.859375 14.109375 6.953125 
Q 18.265625 6.0625 22.796875 6.0625 
Q 30.171875 6.0625 34.296875 8.796875 
Q 38.421875 11.53125 38.421875 15.921875 
Q 38.421875 20.21875 34.765625 22.828125 
Q 31.109375 25.4375 24.421875 25.4375 
L 17.1875 25.4375 
L 17.1875 32.859375 
L 24.75 32.859375 
Q 30.421875 32.859375 33.71875 35.03125 
Q 37.015625 37.203125 37.015625 40.625 
Q 37.015625 43.75 33.609375 46 
Q 30.21875 48.25 24.421875 48.25 
Q 20.953125 48.25 17.015625 47.609375 
Q 13.09375 46.96875 8.34375 45.5625 
L 8.34375 53.71875 
Q 13.140625 54.890625 17.28125 55.46875 
Q 21.4375 56.0625 25.140625 56.0625 
Q 34.71875 56.0625 40.25 52.21875 
Q 45.796875 48.390625 45.796875 41.5 
Q 45.796875 36.96875 42.859375 33.8125 
Q 39.9375 30.671875 34.46875 29.5 
z
" id="DejaVuSans-1079"/>
      </defs>
      <use xlink:href="#DejaVuSans-1055"/>
      <use x="75.195312" xlink:href="#DejaVuSans-1086"/>
      <use x="136.376953" xlink:href="#DejaVuSans-1083"/>
      <use x="200.292969" xlink:href="#DejaVuSans-1080"/>
      <use x="265.283203" xlink:href="#DejaVuSans-1090"/>
      <use x="323.535156" xlink:href="#DejaVuSans-1080"/>
      <use x="388.525391" xlink:href="#DejaVuSans-1095"/>
      <use x="447.607422" xlink:href="#DejaVuSans-1077"/>
      <use x="509.130859" xlink:href="#DejaVuSans-1089"/>
      <use x="564.111328" xlink:href="#DejaVuSans-1082"/>
      <use x="624.511719" xlink:href="#DejaVuSans-1072"/>
      <use x="685.791016" xlink:href="#DejaVuSans-1103"/>
      <use x="745.947266" xlink:href="#DejaVuSans-32"/>
      <use x="777.734375" xlink:href="#DejaVuSans-1087"/>
      <use x="843.115234" xlink:href="#DejaVuSans-1086"/>
      <use x="904.296875" xlink:href="#DejaVuSans-1083"/>
      <use x="968.212891" xlink:href="#DejaVuSans-1103"/>
      <use x="1028.369141" xlink:href="#DejaVuSans-1088"/>
      <use x="1091.845703" xlink:href="#DejaVuSans-1080"/>
      <use x="1156.835938" xlink:href="#DejaVuSans-1079"/>
      <use x="1210.009766" xlink:href="#DejaVuSans-1072"/>
      <use x="1271.289062" xlink:href="#DejaVuSans-1094"/>
      <use x="1339.355469" xlink:href="#DejaVuSans-1080"/>
      <use x="1404.345703" xlink:href="#DejaVuSans-1103"/>
     </g>
    </g>
   </g>
   <g id="line2d_12">
    <path clip-path="url(#p9d337db1b8)" d="M 69.218182 148.566954 
L 373.581818 130.060984 
" style="fill:none;stroke:#ff0000;stroke-linecap:square;stroke-opacity:0.2;stroke-width:0.3;"/>
   </g>
   <g id="line2d_13">
    <path clip-path="url(#p9d337db1b8)" d="M 69.218182 178.77716 
L 373.581818 81.800248 
" style="fill:none;stroke:#ff0000;stroke-linecap:square;stroke-opacity:0.2;stroke-width:0.3;"/>
   </g>
   <g id="line2d_14">
    <path clip-path="url(#p9d337db1b8)" d="M 69.218182 234.601738 
L 373.581818 72.479699 
" style="fill:none;stroke:#ff0000;stroke-linecap:square;stroke-opacity:0.2;stroke-width:0.3;"/>
   </g>
   <g id="line2d_15">
    <path clip-path="url(#p9d337db1b8)" d="M 69.218182 203.545652 
L 373.581818 81.713605 
" style="fill:none;stroke:#ff0000;stroke-linecap:square;stroke-opacity:0.2;stroke-width:0.3;"/>
   </g>
   <g id="line2d_16">
    <path clip-path="url(#p9d337db1b8)" d="M 69.218182 218.242093 
L 373.581818 82.735031 
" style="fill:none;stroke:#ff0000;stroke-linecap:square;stroke-opacity:0.2;stroke-width:0.3;"/>
   </g>
   <g id="line2d_17">
    <path clip-path="url(#p9d337db1b8)" d="M 69.218182 183.387716 
L 373.581818 83.109922 
" style="fill:none;stroke:#ff0000;stroke-linecap:square;stroke-opacity:0.2;stroke-width:0.3;"/>
   </g>
   <g id="line2d_18">
    <path clip-path="url(#p9d337db1b8)" d="M 69.218182 180.142582 
L 373.581818 86.007545 
" style="fill:none;stroke:#ff0000;stroke-linecap:square;stroke-opacity:0.2;stroke-width:0.3;"/>
   </g>
   <g id="line2d_19">
    <path clip-path="url(#p9d337db1b8)" d="M 69.218182 170.391257 
L 373.581818 100.14669 
" style="fill:none;stroke:#ff0000;stroke-linecap:square;stroke-opacity:0.2;stroke-width:0.3;"/>
   </g>
   <g id="line2d_20">
    <path clip-path="url(#p9d337db1b8)" d="M 69.218182 150.373039 
L 373.581818 103.920673 
" style="fill:none;stroke:#ff0000;stroke-linecap:square;stroke-opacity:0.2;stroke-width:0.3;"/>
   </g>
   <g id="line2d_21">
    <path clip-path="url(#p9d337db1b8)" d="M 69.218182 203.566765 
L 373.581818 75.632742 
" style="fill:none;stroke:#ff0000;stroke-linecap:square;stroke-opacity:0.2;stroke-width:0.3;"/>
   </g>
   <g id="line2d_22">
    <path clip-path="url(#p9d337db1b8)" d="M 69.218182 203.309015 
L 373.581818 85.697203 
" style="fill:none;stroke:#ff0000;stroke-linecap:square;stroke-opacity:0.2;stroke-width:0.3;"/>
   </g>
   <g id="line2d_23">
    <path clip-path="url(#p9d337db1b8)" d="M 69.218182 187.659588 
L 373.581818 96.245733 
" style="fill:none;stroke:#ff0000;stroke-linecap:square;stroke-opacity:0.2;stroke-width:0.3;"/>
   </g>
   <g id="line2d_24">
    <path clip-path="url(#p9d337db1b8)" d="M 69.218182 203.540554 
L 373.581818 57.503354 
" style="fill:none;stroke:#ff0000;stroke-linecap:square;stroke-opacity:0.2;stroke-width:0.3;"/>
   </g>
   <g id="line2d_25">
    <path clip-path="url(#p9d337db1b8)" d="M 69.218182 211.897907 
L 373.581818 74.557154 
" style="fill:none;stroke:#ff0000;stroke-linecap:square;stroke-opacity:0.2;stroke-width:0.3;"/>
   </g>
   <g id="line2d_26">
    <path clip-path="url(#p9d337db1b8)" d="M 69.218182 213.033671 
L 373.581818 81.420623 
" style="fill:none;stroke:#ff0000;stroke-linecap:square;stroke-opacity:0.2;stroke-width:0.3;"/>
   </g>
   <g id="line2d_27">
    <path clip-path="url(#p9d337db1b8)" d="M 69.218182 229.08658 
L 373.581818 75.098712 
" style="fill:none;stroke:#ff0000;stroke-linecap:square;stroke-opacity:0.2;stroke-width:0.3;"/>
   </g>
   <g id="line2d_28">
    <path clip-path="url(#p9d337db1b8)" d="M 69.218182 167.118905 
L 373.581818 95.064095 
" style="fill:none;stroke:#ff0000;stroke-linecap:square;stroke-opacity:0.2;stroke-width:0.3;"/>
   </g>
   <g id="line2d_29">
    <path clip-path="url(#p9d337db1b8)" d="M 69.218182 167.402458 
L 373.581818 93.886096 
" style="fill:none;stroke:#ff0000;stroke-linecap:square;stroke-opacity:0.2;stroke-width:0.3;"/>
   </g>
   <g id="line2d_30">
    <path clip-path="url(#p9d337db1b8)" d="M 69.218182 195.664263 
L 373.581818 99.387093 
" style="fill:none;stroke:#ff0000;stroke-linecap:square;stroke-opacity:0.2;stroke-width:0.3;"/>
   </g>
   <g id="line2d_31">
    <path clip-path="url(#p9d337db1b8)" d="M 69.218182 183.18778 
L 373.581818 101.779339 
" style="fill:none;stroke:#ff0000;stroke-linecap:square;stroke-opacity:0.2;stroke-width:0.3;"/>
   </g>
   <g id="line2d_32">
    <path clip-path="url(#p9d337db1b8)" d="M 69.218182 185.776658 
L 373.581818 91.216124 
" style="fill:none;stroke:#ff0000;stroke-linecap:square;stroke-opacity:0.2;stroke-width:0.3;"/>
   </g>
   <g id="line2d_33">
    <path clip-path="url(#p9d337db1b8)" d="M 69.218182 144.290162 
L 373.581818 110.670308 
" style="fill:none;stroke:#ff0000;stroke-linecap:square;stroke-opacity:0.2;stroke-width:0.3;"/>
   </g>
   <g id="line2d_34">
    <path clip-path="url(#p9d337db1b8)" d="M 69.218182 167.41129 
L 373.581818 88.888028 
" style="fill:none;stroke:#ff0000;stroke-linecap:square;stroke-opacity:0.2;stroke-width:0.3;"/>
   </g>
   <g id="line2d_35">
    <path clip-path="url(#p9d337db1b8)" d="M 69.218182 168.843043 
L 373.581818 101.321317 
" style="fill:none;stroke:#ff0000;stroke-linecap:square;stroke-opacity:0.2;stroke-width:0.3;"/>
   </g>
   <g id="line2d_36">
    <path clip-path="url(#p9d337db1b8)" d="M 69.218182 170.680178 
L 373.581818 101.512032 
" style="fill:none;stroke:#ff0000;stroke-linecap:square;stroke-opacity:0.2;stroke-width:0.3;"/>
   </g>
   <g id="line2d_37">
    <path clip-path="url(#p9d337db1b8)" d="M 69.218182 193.54331 
L 373.581818 97.295689 
" style="fill:none;stroke:#ff0000;stroke-linecap:square;stroke-opacity:0.2;stroke-width:0.3;"/>
   </g>
   <g id="line2d_38">
    <path clip-path="url(#p9d337db1b8)" d="M 69.218182 173.937452 
L 373.581818 90.561962 
" style="fill:none;stroke:#ff0000;stroke-linecap:square;stroke-opacity:0.2;stroke-width:0.3;"/>
   </g>
   <g id="line2d_39">
    <path clip-path="url(#p9d337db1b8)" d="M 69.218182 175.86255 
L 373.581818 82.558564 
" style="fill:none;stroke:#ff0000;stroke-linecap:square;stroke-opacity:0.2;stroke-width:0.3;"/>
   </g>
   <g id="line2d_40">
    <path clip-path="url(#p9d337db1b8)" d="M 69.218182 194.527895 
L 373.581818 78.528712 
" style="fill:none;stroke:#ff0000;stroke-linecap:square;stroke-opacity:0.2;stroke-width:0.3;"/>
   </g>
   <g id="line2d_41">
    <path clip-path="url(#p9d337db1b8)" d="M 69.218182 170.196224 
L 373.581818 104.435322 
" style="fill:none;stroke:#ff0000;stroke-linecap:square;stroke-opacity:0.2;stroke-width:0.3;"/>
   </g>
   <g id="line2d_42">
    <path clip-path="url(#p9d337db1b8)" d="M 69.218182 198.273196 
L 373.581818 77.735732 
" style="fill:none;stroke:#ff0000;stroke-linecap:square;stroke-opacity:0.2;stroke-width:0.3;"/>
   </g>
   <g id="line2d_43">
    <path clip-path="url(#p9d337db1b8)" d="M 69.218182 152.048801 
L 373.581818 111.952693 
" style="fill:none;stroke:#ff0000;stroke-linecap:square;stroke-opacity:0.2;stroke-width:0.3;"/>
   </g>
   <g id="line2d_44">
    <path clip-path="url(#p9d337db1b8)" d="M 69.218182 242.116364 
L 373.581818 44.443636 
" style="fill:none;stroke:#ff0000;stroke-linecap:square;stroke-opacity:0.2;stroke-width:0.3;"/>
   </g>
   <g id="line2d_45">
    <path clip-path="url(#p9d337db1b8)" d="M 69.218182 180.705365 
L 373.581818 103.359378 
" style="fill:none;stroke:#ff0000;stroke-linecap:square;stroke-opacity:0.2;stroke-width:0.3;"/>
   </g>
   <g id="line2d_46">
    <path clip-path="url(#p9d337db1b8)" d="M 69.218182 171.941934 
L 373.581818 104.202518 
" style="fill:none;stroke:#ff0000;stroke-linecap:square;stroke-opacity:0.2;stroke-width:0.3;"/>
   </g>
   <g id="line2d_47">
    <path clip-path="url(#p9d337db1b8)" d="M 69.218182 167.222712 
L 373.581818 104.226922 
" style="fill:none;stroke:#ff0000;stroke-linecap:square;stroke-opacity:0.2;stroke-width:0.3;"/>
   </g>
   <g id="line2d_48">
    <path clip-path="url(#p9d337db1b8)" d="M 69.218182 220.782718 
L 373.581818 67.721229 
" style="fill:none;stroke:#ff0000;stroke-linecap:square;stroke-opacity:0.2;stroke-width:0.3;"/>
   </g>
   <g id="line2d_49">
    <path clip-path="url(#p9d337db1b8)" d="M 69.218182 208.856199 
L 373.581818 66.509702 
" style="fill:none;stroke:#ff0000;stroke-linecap:square;stroke-opacity:0.2;stroke-width:0.3;"/>
   </g>
   <g id="line2d_50">
    <path clip-path="url(#p9d337db1b8)" d="M 69.218182 209.07917 
L 373.581818 78.831761 
" style="fill:none;stroke:#ff0000;stroke-linecap:square;stroke-opacity:0.2;stroke-width:0.3;"/>
   </g>
   <g id="line2d_51">
    <path clip-path="url(#p9d337db1b8)" d="M 69.218182 153.262485 
L 373.581818 96.637489 
" style="fill:none;stroke:#ff0000;stroke-linecap:square;stroke-opacity:0.2;stroke-width:0.3;"/>
   </g>
   <g id="line2d_52">
    <path clip-path="url(#p9d337db1b8)" d="M 69.218182 182.028285 
L 373.581818 83.478828 
" style="fill:none;stroke:#ff0000;stroke-linecap:square;stroke-opacity:0.2;stroke-width:0.3;"/>
   </g>
   <g id="line2d_53">
    <path clip-path="url(#p9d337db1b8)" d="M 69.218182 141.956617 
L 373.581818 108.34603 
" style="fill:none;stroke:#ff0000;stroke-linecap:square;stroke-opacity:0.2;stroke-width:0.3;"/>
   </g>
   <g id="line2d_54">
    <path clip-path="url(#p9d337db1b8)" d="M 69.218182 197.786974 
L 373.581818 106.204382 
" style="fill:none;stroke:#ff0000;stroke-linecap:square;stroke-opacity:0.2;stroke-width:0.3;"/>
   </g>
   <g id="line2d_55">
    <path clip-path="url(#p9d337db1b8)" d="M 69.218182 163.712781 
L 373.581818 87.278316 
" style="fill:none;stroke:#ff0000;stroke-linecap:square;stroke-opacity:0.2;stroke-width:0.3;"/>
   </g>
   <g id="line2d_56">
    <path clip-path="url(#p9d337db1b8)" d="M 69.218182 219.102346 
L 373.581818 80.347613 
" style="fill:none;stroke:#ff0000;stroke-linecap:square;stroke-opacity:0.2;stroke-width:0.3;"/>
   </g>
   <g id="line2d_57">
    <path clip-path="url(#p9d337db1b8)" d="M 69.218182 165.118396 
L 373.581818 94.178583 
" style="fill:none;stroke:#ff0000;stroke-linecap:square;stroke-opacity:0.2;stroke-width:0.3;"/>
   </g>
   <g id="line2d_58">
    <path clip-path="url(#p9d337db1b8)" d="M 69.218182 180.791801 
L 373.581818 96.003969 
" style="fill:none;stroke:#ff0000;stroke-linecap:square;stroke-opacity:0.2;stroke-width:0.3;"/>
   </g>
   <g id="line2d_59">
    <path clip-path="url(#p9d337db1b8)" d="M 69.218182 180.622251 
L 373.581818 109.512716 
" style="fill:none;stroke:#ff0000;stroke-linecap:square;stroke-opacity:0.2;stroke-width:0.3;"/>
   </g>
   <g id="line2d_60">
    <path clip-path="url(#p9d337db1b8)" d="M 69.218182 172.747937 
L 373.581818 95.664083 
" style="fill:none;stroke:#ff0000;stroke-linecap:square;stroke-opacity:0.2;stroke-width:0.3;"/>
   </g>
   <g id="line2d_61">
    <path clip-path="url(#p9d337db1b8)" d="M 69.218182 160.13135 
L 373.581818 88.670936 
" style="fill:none;stroke:#ff0000;stroke-linecap:square;stroke-opacity:0.2;stroke-width:0.3;"/>
   </g>
   <g id="line2d_62">
    <path clip-path="url(#p9d337db1b8)" d="M 69.218182 223.399981 
L 373.581818 82.527358 
" style="fill:none;stroke:#ff0000;stroke-linecap:square;stroke-opacity:0.2;stroke-width:0.3;"/>
   </g>
   <g id="line2d_63">
    <path clip-path="url(#p9d337db1b8)" d="M 69.218182 178.634216 
L 373.581818 97.342845 
" style="fill:none;stroke:#ff0000;stroke-linecap:square;stroke-opacity:0.2;stroke-width:0.3;"/>
   </g>
   <g id="line2d_64">
    <path clip-path="url(#p9d337db1b8)" d="M 69.218182 188.148837 
L 373.581818 82.081062 
" style="fill:none;stroke:#ff0000;stroke-linecap:square;stroke-opacity:0.2;stroke-width:0.3;"/>
   </g>
   <g id="line2d_65">
    <path clip-path="url(#p9d337db1b8)" d="M 69.218182 175.103773 
L 373.581818 71.890213 
" style="fill:none;stroke:#ff0000;stroke-linecap:square;stroke-opacity:0.2;stroke-width:0.3;"/>
   </g>
   <g id="line2d_66">
    <path clip-path="url(#p9d337db1b8)" d="M 69.218182 174.203902 
L 373.581818 90.32741 
" style="fill:none;stroke:#ff0000;stroke-linecap:square;stroke-opacity:0.2;stroke-width:0.3;"/>
   </g>
   <g id="line2d_67">
    <path clip-path="url(#p9d337db1b8)" d="M 69.218182 192.92536 
L 373.581818 87.461737 
" style="fill:none;stroke:#ff0000;stroke-linecap:square;stroke-opacity:0.2;stroke-width:0.3;"/>
   </g>
   <g id="line2d_68">
    <path clip-path="url(#p9d337db1b8)" d="M 69.218182 204.609032 
L 373.581818 102.147012 
" style="fill:none;stroke:#ff0000;stroke-linecap:square;stroke-opacity:0.2;stroke-width:0.3;"/>
   </g>
   <g id="line2d_69">
    <path clip-path="url(#p9d337db1b8)" d="M 69.218182 223.242043 
L 373.581818 76.116884 
" style="fill:none;stroke:#ff0000;stroke-linecap:square;stroke-opacity:0.2;stroke-width:0.3;"/>
   </g>
   <g id="line2d_70">
    <path clip-path="url(#p9d337db1b8)" d="M 69.218182 179.11358 
L 373.581818 90.184014 
" style="fill:none;stroke:#ff0000;stroke-linecap:square;stroke-opacity:0.2;stroke-width:0.3;"/>
   </g>
   <g id="line2d_71">
    <path clip-path="url(#p9d337db1b8)" d="M 69.218182 193.21064 
L 373.581818 93.139679 
" style="fill:none;stroke:#ff0000;stroke-linecap:square;stroke-opacity:0.2;stroke-width:0.3;"/>
   </g>
   <g id="line2d_72">
    <path clip-path="url(#p9d337db1b8)" d="M 69.218182 193.047859 
L 373.581818 87.591945 
" style="fill:none;stroke:#ff0000;stroke-linecap:square;stroke-opacity:0.2;stroke-width:0.3;"/>
   </g>
   <g id="line2d_73">
    <path clip-path="url(#p9d337db1b8)" d="M 69.218182 187.159629 
L 373.581818 81.283254 
" style="fill:none;stroke:#ff0000;stroke-linecap:square;stroke-opacity:0.2;stroke-width:0.3;"/>
   </g>
   <g id="line2d_74">
    <path clip-path="url(#p9d337db1b8)" d="M 69.218182 199.78859 
L 373.581818 92.377163 
" style="fill:none;stroke:#ff0000;stroke-linecap:square;stroke-opacity:0.2;stroke-width:0.3;"/>
   </g>
   <g id="line2d_75">
    <path clip-path="url(#p9d337db1b8)" d="M 69.218182 207.788478 
L 373.581818 70.985573 
" style="fill:none;stroke:#ff0000;stroke-linecap:square;stroke-opacity:0.2;stroke-width:0.3;"/>
   </g>
   <g id="line2d_76">
    <path clip-path="url(#p9d337db1b8)" d="M 69.218182 178.130758 
L 373.581818 107.431636 
" style="fill:none;stroke:#ff0000;stroke-linecap:square;stroke-opacity:0.2;stroke-width:0.3;"/>
   </g>
   <g id="line2d_77">
    <path clip-path="url(#p9d337db1b8)" d="M 69.218182 203.859191 
L 373.581818 94.915078 
" style="fill:none;stroke:#ff0000;stroke-linecap:square;stroke-opacity:0.2;stroke-width:0.3;"/>
   </g>
   <g id="line2d_78">
    <path clip-path="url(#p9d337db1b8)" d="M 69.218182 185.364968 
L 373.581818 83.336148 
" style="fill:none;stroke:#ff0000;stroke-linecap:square;stroke-opacity:0.2;stroke-width:0.3;"/>
   </g>
   <g id="line2d_79">
    <path clip-path="url(#p9d337db1b8)" d="M 69.218182 151.127459 
L 373.581818 94.672681 
" style="fill:none;stroke:#ff0000;stroke-linecap:square;stroke-opacity:0.2;stroke-width:0.3;"/>
   </g>
   <g id="line2d_80">
    <path clip-path="url(#p9d337db1b8)" d="M 69.218182 182.346186 
L 373.581818 91.221978 
" style="fill:none;stroke:#ff0000;stroke-linecap:square;stroke-opacity:0.2;stroke-width:0.3;"/>
   </g>
   <g id="line2d_81">
    <path clip-path="url(#p9d337db1b8)" d="M 69.218182 189.125222 
L 373.581818 97.186522 
" style="fill:none;stroke:#ff0000;stroke-linecap:square;stroke-opacity:0.2;stroke-width:0.3;"/>
   </g>
   <g id="line2d_82">
    <path clip-path="url(#p9d337db1b8)" d="M 69.218182 184.185713 
L 373.581818 72.513745 
" style="fill:none;stroke:#ff0000;stroke-linecap:square;stroke-opacity:0.2;stroke-width:0.3;"/>
   </g>
   <g id="line2d_83">
    <path clip-path="url(#p9d337db1b8)" d="M 69.218182 171.704592 
L 373.581818 94.533339 
" style="fill:none;stroke:#ff0000;stroke-linecap:square;stroke-opacity:0.2;stroke-width:0.3;"/>
   </g>
   <g id="line2d_84">
    <path clip-path="url(#p9d337db1b8)" d="M 69.218182 174.813248 
L 373.581818 88.305604 
" style="fill:none;stroke:#ff0000;stroke-linecap:square;stroke-opacity:0.2;stroke-width:0.3;"/>
   </g>
   <g id="line2d_85">
    <path clip-path="url(#p9d337db1b8)" d="M 69.218182 143.94707 
L 373.581818 87.051214 
" style="fill:none;stroke:#ff0000;stroke-linecap:square;stroke-opacity:0.2;stroke-width:0.3;"/>
   </g>
   <g id="line2d_86">
    <path clip-path="url(#p9d337db1b8)" d="M 69.218182 141.175046 
L 373.581818 94.155053 
" style="fill:none;stroke:#ff0000;stroke-linecap:square;stroke-opacity:0.2;stroke-width:0.3;"/>
   </g>
   <g id="line2d_87">
    <path clip-path="url(#p9d337db1b8)" d="M 69.218182 195.963229 
L 373.581818 96.579639 
" style="fill:none;stroke:#ff0000;stroke-linecap:square;stroke-opacity:0.2;stroke-width:0.3;"/>
   </g>
   <g id="line2d_88">
    <path clip-path="url(#p9d337db1b8)" d="M 69.218182 162.503818 
L 373.581818 97.921265 
" style="fill:none;stroke:#ff0000;stroke-linecap:square;stroke-opacity:0.2;stroke-width:0.3;"/>
   </g>
   <g id="line2d_89">
    <path clip-path="url(#p9d337db1b8)" d="M 69.218182 218.823289 
L 373.581818 66.579388 
" style="fill:none;stroke:#ff0000;stroke-linecap:square;stroke-opacity:0.2;stroke-width:0.3;"/>
   </g>
   <g id="line2d_90">
    <path clip-path="url(#p9d337db1b8)" d="M 69.218182 193.000539 
L 373.581818 98.07916 
" style="fill:none;stroke:#ff0000;stroke-linecap:square;stroke-opacity:0.2;stroke-width:0.3;"/>
   </g>
   <g id="line2d_91">
    <path clip-path="url(#p9d337db1b8)" d="M 69.218182 185.413847 
L 373.581818 105.195119 
" style="fill:none;stroke:#ff0000;stroke-linecap:square;stroke-opacity:0.2;stroke-width:0.3;"/>
   </g>
   <g id="line2d_92">
    <path clip-path="url(#p9d337db1b8)" d="M 69.218182 209.795431 
L 373.581818 82.491504 
" style="fill:none;stroke:#ff0000;stroke-linecap:square;stroke-opacity:0.2;stroke-width:0.3;"/>
   </g>
   <g id="line2d_93">
    <path clip-path="url(#p9d337db1b8)" d="M 69.218182 178.195108 
L 373.581818 93.741769 
" style="fill:none;stroke:#ff0000;stroke-linecap:square;stroke-opacity:0.2;stroke-width:0.3;"/>
   </g>
   <g id="line2d_94">
    <path clip-path="url(#p9d337db1b8)" d="M 69.218182 215.677308 
L 373.581818 69.764659 
" style="fill:none;stroke:#ff0000;stroke-linecap:square;stroke-opacity:0.2;stroke-width:0.3;"/>
   </g>
   <g id="line2d_95">
    <path clip-path="url(#p9d337db1b8)" d="M 69.218182 170.834518 
L 373.581818 92.902624 
" style="fill:none;stroke:#ff0000;stroke-linecap:square;stroke-opacity:0.2;stroke-width:0.3;"/>
   </g>
   <g id="line2d_96">
    <path clip-path="url(#p9d337db1b8)" d="M 69.218182 154.750751 
L 373.581818 106.013159 
" style="fill:none;stroke:#ff0000;stroke-linecap:square;stroke-opacity:0.2;stroke-width:0.3;"/>
   </g>
   <g id="line2d_97">
    <path clip-path="url(#p9d337db1b8)" d="M 69.218182 162.477589 
L 373.581818 93.269155 
" style="fill:none;stroke:#ff0000;stroke-linecap:square;stroke-opacity:0.2;stroke-width:0.3;"/>
   </g>
   <g id="line2d_98">
    <path clip-path="url(#p9d337db1b8)" d="M 69.218182 165.060724 
L 373.581818 95.194631 
" style="fill:none;stroke:#ff0000;stroke-linecap:square;stroke-opacity:0.2;stroke-width:0.3;"/>
   </g>
   <g id="line2d_99">
    <path clip-path="url(#p9d337db1b8)" d="M 69.218182 174.368182 
L 373.581818 108.386079 
" style="fill:none;stroke:#ff0000;stroke-linecap:square;stroke-opacity:0.2;stroke-width:0.3;"/>
   </g>
   <g id="line2d_100">
    <path clip-path="url(#p9d337db1b8)" d="M 69.218182 180.391603 
L 373.581818 80.699986 
" style="fill:none;stroke:#ff0000;stroke-linecap:square;stroke-opacity:0.2;stroke-width:0.3;"/>
   </g>
   <g id="line2d_101">
    <path clip-path="url(#p9d337db1b8)" d="M 69.218182 181.497064 
L 373.581818 101.889945 
" style="fill:none;stroke:#ff0000;stroke-linecap:square;stroke-opacity:0.2;stroke-width:0.3;"/>
   </g>
   <g id="line2d_102">
    <path clip-path="url(#p9d337db1b8)" d="M 69.218182 234.971533 
L 373.581818 69.243841 
" style="fill:none;stroke:#ff0000;stroke-linecap:square;stroke-opacity:0.2;stroke-width:0.3;"/>
   </g>
   <g id="line2d_103">
    <path clip-path="url(#p9d337db1b8)" d="M 69.218182 215.063601 
L 373.581818 83.783953 
" style="fill:none;stroke:#ff0000;stroke-linecap:square;stroke-opacity:0.2;stroke-width:0.3;"/>
   </g>
   <g id="line2d_104">
    <path clip-path="url(#p9d337db1b8)" d="M 69.218182 163.790446 
L 373.581818 96.334357 
" style="fill:none;stroke:#ff0000;stroke-linecap:square;stroke-opacity:0.2;stroke-width:0.3;"/>
   </g>
   <g id="line2d_105">
    <path clip-path="url(#p9d337db1b8)" d="M 69.218182 231.096676 
L 373.581818 67.402497 
" style="fill:none;stroke:#ff0000;stroke-linecap:square;stroke-opacity:0.2;stroke-width:0.3;"/>
   </g>
   <g id="line2d_106">
    <path clip-path="url(#p9d337db1b8)" d="M 69.218182 195.710739 
L 373.581818 78.165598 
" style="fill:none;stroke:#ff0000;stroke-linecap:square;stroke-opacity:0.2;stroke-width:0.3;"/>
   </g>
   <g id="line2d_107">
    <path clip-path="url(#p9d337db1b8)" d="M 69.218182 171.860782 
L 373.581818 100.023425 
" style="fill:none;stroke:#ff0000;stroke-linecap:square;stroke-opacity:0.2;stroke-width:0.3;"/>
   </g>
   <g id="line2d_108">
    <path clip-path="url(#p9d337db1b8)" d="M 69.218182 159.050493 
L 373.581818 111.27316 
" style="fill:none;stroke:#ff0000;stroke-linecap:square;stroke-opacity:0.2;stroke-width:0.3;"/>
   </g>
   <g id="line2d_109">
    <path clip-path="url(#p9d337db1b8)" d="M 69.218182 158.614641 
L 373.581818 100.922673 
" style="fill:none;stroke:#ff0000;stroke-linecap:square;stroke-opacity:0.2;stroke-width:0.3;"/>
   </g>
   <g id="line2d_110">
    <path clip-path="url(#p9d337db1b8)" d="M 69.218182 189.371289 
L 373.581818 84.361524 
" style="fill:none;stroke:#ff0000;stroke-linecap:square;stroke-opacity:0.2;stroke-width:0.3;"/>
   </g>
   <g id="line2d_111">
    <path clip-path="url(#p9d337db1b8)" d="M 69.218182 187.387181 
L 373.581818 87.893503 
" style="fill:none;stroke:#ff0000;stroke-linecap:square;stroke-opacity:0.2;stroke-width:0.3;"/>
   </g>
   <g id="line2d_112">
    <defs>
     <path d="M 0 1.5 
C 0.397805 1.5 0.77937 1.341951 1.06066 1.06066 
C 1.341951 0.77937 1.5 0.397805 1.5 0 
C 1.5 -0.397805 1.341951 -0.77937 1.06066 -1.06066 
C 0.77937 -1.341951 0.397805 -1.5 0 -1.5 
C -0.397805 -1.5 -0.77937 -1.341951 -1.06066 -1.06066 
C -1.341951 -0.77937 -1.5 -0.397805 -1.5 0 
C -1.5 0.397805 -1.341951 0.77937 -1.06066 1.06066 
C -0.77937 1.341951 -0.397805 1.5 0 1.5 
z
" id="m18aeb6b9e8" style="stroke:#1f77b4;"/>
    </defs>
    <g clip-path="url(#p9d337db1b8)">
     <use style="fill:#1f77b4;stroke:#1f77b4;" x="221.4" xlink:href="#m18aeb6b9e8" y="158.937991"/>
     <use style="fill:#1f77b4;stroke:#1f77b4;" x="332.60979" xlink:href="#m18aeb6b9e8" y="103.014237"/>
     <use style="fill:#1f77b4;stroke:#1f77b4;" x="268.225175" xlink:href="#m18aeb6b9e8" y="100.758302"/>
     <use style="fill:#1f77b4;stroke:#1f77b4;" x="279.931469" xlink:href="#m18aeb6b9e8" y="121.095922"/>
     <use style="fill:#1f77b4;stroke:#1f77b4;" x="350.169231" xlink:href="#m18aeb6b9e8" y="59.17054"/>
     <use style="fill:#1f77b4;stroke:#1f77b4;" x="151.162238" xlink:href="#m18aeb6b9e8" y="194.42674"/>
     <use style="fill:#1f77b4;stroke:#1f77b4;" x="227.253147" xlink:href="#m18aeb6b9e8" y="123.745201"/>
     <use style="fill:#1f77b4;stroke:#1f77b4;" x="192.134266" xlink:href="#m18aeb6b9e8" y="171.979212"/>
     <use style="fill:#1f77b4;stroke:#1f77b4;" x="69.218182" xlink:href="#m18aeb6b9e8" y="223.0838"/>
     <use style="fill:#1f77b4;stroke:#1f77b4;" x="238.959441" xlink:href="#m18aeb6b9e8" y="137.544303"/>
     <use style="fill:#1f77b4;stroke:#1f77b4;" x="332.60979" xlink:href="#m18aeb6b9e8" y="118.653849"/>
     <use style="fill:#1f77b4;stroke:#1f77b4;" x="238.959441" xlink:href="#m18aeb6b9e8" y="158.973745"/>
     <use style="fill:#1f77b4;stroke:#1f77b4;" x="291.637762" xlink:href="#m18aeb6b9e8" y="129.822122"/>
     <use style="fill:#1f77b4;stroke:#1f77b4;" x="262.372028" xlink:href="#m18aeb6b9e8" y="136.309055"/>
     <use style="fill:#1f77b4;stroke:#1f77b4;" x="215.546853" xlink:href="#m18aeb6b9e8" y="223.745977"/>
     <use style="fill:#1f77b4;stroke:#1f77b4;" x="186.281119" xlink:href="#m18aeb6b9e8" y="231.325983"/>
     <use style="fill:#1f77b4;stroke:#1f77b4;" x="285.784615" xlink:href="#m18aeb6b9e8" y="184.043146"/>
     <use style="fill:#1f77b4;stroke:#1f77b4;" x="203.840559" xlink:href="#m18aeb6b9e8" y="97.983561"/>
     <use style="fill:#1f77b4;stroke:#1f77b4;" x="344.316084" xlink:href="#m18aeb6b9e8" y="128.59469"/>
     <use style="fill:#1f77b4;stroke:#1f77b4;" x="256.518881" xlink:href="#m18aeb6b9e8" y="73.308424"/>
     <use style="fill:#1f77b4;stroke:#1f77b4;" x="315.05035" xlink:href="#m18aeb6b9e8" y="84.103334"/>
     <use style="fill:#1f77b4;stroke:#1f77b4;" x="297.490909" xlink:href="#m18aeb6b9e8" y="88.96407"/>
     <use style="fill:#1f77b4;stroke:#1f77b4;" x="291.637762" xlink:href="#m18aeb6b9e8" y="52.402696"/>
     <use style="fill:#1f77b4;stroke:#1f77b4;" x="215.546853" xlink:href="#m18aeb6b9e8" y="195.448083"/>
    </g>
   </g>
   <g id="patch_3">
    <path d="M 54 252 
L 54 34.56 
" style="fill:none;stroke:#000000;stroke-linecap:square;stroke-linejoin:miter;stroke-width:0.8;"/>
   </g>
   <g id="patch_4">
    <path d="M 388.8 252 
L 388.8 34.56 
" style="fill:none;stroke:#000000;stroke-linecap:square;stroke-linejoin:miter;stroke-width:0.8;"/>
   </g>
   <g id="patch_5">
    <path d="M 54 252 
L 388.8 252 
" style="fill:none;stroke:#000000;stroke-linecap:square;stroke-linejoin:miter;stroke-width:0.8;"/>
   </g>
   <g id="patch_6">
    <path d="M 54 34.56 
L 388.8 34.56 
" style="fill:none;stroke:#000000;stroke-linecap:square;stroke-linejoin:miter;stroke-width:0.8;"/>
   </g>
  </g>
 </g>
 <defs>
  <clipPath id="p9d337db1b8">
   <rect height="217.44" width="334.8" x="54" y="34.56"/>
  </clipPath>
 </defs>
</svg>
